<svg width="980" height="420" viewBox="0 0 980 420" fill="none" xmlns="http://www.w3.org/2000/svg" role="img" aria-labelledby="title desc">
  <title id="title">Azure to AWS migration architecture</title>
  <desc id="desc">Azure services on the left map through a stable workflow contract to AWS services on the right.</desc>
  <rect width="980" height="420" rx="16" fill="#F7F7F4"/>
  <rect x="28" y="32" width="270" height="356" rx="14" fill="#FFFFFF" stroke="#D8D8D0"/>
  <rect x="355" y="32" width="270" height="356" rx="14" fill="#FFFFFF" stroke="#D8D8D0"/>
  <rect x="682" y="32" width="270" height="356" rx="14" fill="#FFFFFF" stroke="#D8D8D0"/>

  <text x="52" y="67" fill="#0F0F0F" font-family="ui-sans-serif, system-ui, -apple-system, BlinkMacSystemFont, Segoe UI, sans-serif" font-size="18" font-weight="700">Azure source</text>
  <text x="379" y="67" fill="#0F0F0F" font-family="ui-sans-serif, system-ui, -apple-system, BlinkMacSystemFont, Segoe UI, sans-serif" font-size="18" font-weight="700">Stable app contract</text>
  <text x="706" y="67" fill="#0F0F0F" font-family="ui-sans-serif, system-ui, -apple-system, BlinkMacSystemFont, Segoe UI, sans-serif" font-size="18" font-weight="700">AWS target</text>

  <g font-family="ui-sans-serif, system-ui, -apple-system, BlinkMacSystemFont, Segoe UI, sans-serif" font-size="14" font-weight="600">
    <rect x="52" y="98" width="222" height="42" rx="8" fill="#EAF4FF" stroke="#99C7F3"/>
    <text x="68" y="124" fill="#164B7A">Azure OpenAI</text>
    <rect x="52" y="154" width="222" height="42" rx="8" fill="#EAF4FF" stroke="#99C7F3"/>
    <text x="68" y="180" fill="#164B7A">Azure AI Search</text>
    <rect x="52" y="210" width="222" height="42" rx="8" fill="#EAF4FF" stroke="#99C7F3"/>
    <text x="68" y="236" fill="#164B7A">Blob Storage</text>
    <rect x="52" y="266" width="222" height="42" rx="8" fill="#EAF4FF" stroke="#99C7F3"/>
    <text x="68" y="292" fill="#164B7A">Cosmos DB</text>
    <rect x="52" y="322" width="222" height="42" rx="8" fill="#EAF4FF" stroke="#99C7F3"/>
    <text x="68" y="348" fill="#164B7A">App Service / Container Apps</text>
  </g>

  <g font-family="ui-sans-serif, system-ui, -apple-system, BlinkMacSystemFont, Segoe UI, sans-serif" font-size="14" font-weight="600">
    <rect x="379" y="98" width="222" height="42" rx="8" fill="#F1F1EC" stroke="#D8D8D0"/>
    <text x="395" y="124" fill="#292927">Persistent request</text>
    <rect x="379" y="154" width="222" height="42" rx="8" fill="#E7F6F1" stroke="#92D9C7"/>
    <text x="395" y="180" fill="#0B6B57">Deterministic rules</text>
    <rect x="379" y="210" width="222" height="42" rx="8" fill="#FFF7E6" stroke="#E2C77D"/>
    <text x="395" y="236" fill="#7B5B00">Policy citations</text>
    <rect x="379" y="266" width="222" height="42" rx="8" fill="#F1F1EC" stroke="#D8D8D0"/>
    <text x="395" y="292" fill="#292927">Generated explanation</text>
    <rect x="379" y="322" width="222" height="42" rx="8" fill="#F1F1EC" stroke="#D8D8D0"/>
    <text x="395" y="348" fill="#292927">Audit trail</text>
  </g>

  <g font-family="ui-sans-serif, system-ui, -apple-system, BlinkMacSystemFont, Segoe UI, sans-serif" font-size="14" font-weight="600">
    <rect x="706" y="98" width="222" height="42" rx="8" fill="#E7F6F1" stroke="#92D9C7"/>
    <text x="722" y="124" fill="#0B6B57">OpenAI on Bedrock</text>
    <rect x="706" y="154" width="222" height="42" rx="8" fill="#E7F6F1" stroke="#92D9C7"/>
    <text x="722" y="180" fill="#0B6B57">OpenSearch / Knowledge Bases</text>
    <rect x="706" y="210" width="222" height="42" rx="8" fill="#E7F6F1" stroke="#92D9C7"/>
    <text x="722" y="236" fill="#0B6B57">Amazon S3</text>
    <rect x="706" y="266" width="222" height="42" rx="8" fill="#E7F6F1" stroke="#92D9C7"/>
    <text x="722" y="292" fill="#0B6B57">DynamoDB</text>
    <rect x="706" y="322" width="222" height="42" rx="8" fill="#E7F6F1" stroke="#92D9C7"/>
    <text x="722" y="348" fill="#0B6B57">App Runner / ECS</text>
  </g>

  <path d="M310 210H344" stroke="#8A8A83" stroke-width="2" stroke-linecap="round"/>
  <path d="M339 204L346 210L339 216" stroke="#8A8A83" stroke-width="2" stroke-linecap="round" stroke-linejoin="round"/>
  <path d="M637 210H671" stroke="#8A8A83" stroke-width="2" stroke-linecap="round"/>
  <path d="M666 204L673 210L666 216" stroke="#8A8A83" stroke-width="2" stroke-linecap="round" stroke-linejoin="round"/>
</svg>

